<svg width="72" height="72" viewBox="0 0 72 72" fill="none" xmlns="http://www.w3.org/2000/svg" id="zoom-webinar">
    <path d="M0 0H72V72H0V0Z" fill="#AED180" />
    <path fill-rule="evenodd" clip-rule="evenodd" d="M20.436 24.1841C20 25.0397 20 26.1598 20 28.4V43.6001C20 45.8404 20 46.9605 20.436 47.8161C20.8195 48.5688 21.4314 49.1807 22.1841 49.5642C23.0397 50.0002 24.1598 50.0002 26.4 50.0002H45.6002C47.8404 50.0002 48.9605 50.0002 49.8161 49.5642C50.5688 49.1807 51.1807 48.5688 51.5642 47.8161C52.0002 46.9605 52.0002 45.8404 52.0002 43.6001V28.4C52.0002 26.1598 52.0002 25.0397 51.5642 24.1841C51.1807 23.4314 50.5688 22.8195 49.8161 22.436C48.9605 22 47.8404 22 45.6002 22H26.4C24.1598 22 23.0397 22 22.1841 22.436C21.4314 22.8195 20.8195 23.4314 20.436 24.1841ZM24 27C24 26.4477 24.4477 26 25 26H29.0001C29.5523 26 30.0001 26.4477 30.0001 27V29C30.0001 29.5523 29.5523 30 29.0001 30H25C24.4477 30 24 29.5523 24 29V27ZM33.1993 27C33.1993 26.4477 33.647 26 34.1993 26H38.1993C38.7516 26 39.1993 26.4477 39.1993 27V29C39.1993 29.5523 38.7516 30 38.1993 30H34.1993C33.647 30 33.1993 29.5523 33.1993 29V27ZM24 34.0001C24 32.8955 24.8955 32.0001 26 32.0001H46.0002C47.1047 32.0001 48.0002 32.8955 48.0002 34.0001V44.0001C48.0002 45.1047 47.1047 46.0001 46.0002 46.0001H26C24.8955 46.0001 24 45.1047 24 44.0001V34.0001ZM42.0001 27C42.0001 26.4477 42.4479 26 43.0001 26H47.0002C47.5525 26 48.0002 26.4477 48.0002 27V29C48.0002 29.5523 47.5525 30 47.0002 30H43.0001C42.4479 30 42.0001 29.5523 42.0001 29V27Z" fill="white" />
</svg>
    