<svg width="72" height="72" viewBox="0 0 72 72" fill="none" xmlns="http://www.w3.org/2000/svg" id="zoom-phone">
    <path d="M0 0H72V72H0V0Z" fill="#3F6D95" />
    <path d="M29 22H26C23.7909 22 22 23.7909 22 26C22 39.2548 32.7452 50 46 50C48.2091 50 50 48.2091 50 46V43C50 40.7909 48.2091 39 46 39H43.6569C42.596 39 41.5786 39.4214 40.8284 40.1716L40.0193 40.9807C39.4106 41.5894 38.4806 41.7403 37.7107 41.3553L37.174 41.087C34.4646 39.7323 32.2677 37.5354 30.913 34.826L30.6447 34.2893C30.2597 33.5194 30.4106 32.5894 31.0193 31.9807L31.8284 31.1716C32.5786 30.4214 33 29.404 33 28.3431V26C33 23.7909 31.2091 22 29 22Z" fill="white" />
</svg>
    